<?xml version="1.0" encoding="utf-8"?>
<!-- Generator: Adobe Illustrator 16.0.0, SVG Export Plug-In . SVG Version: 6.00 Build 0)  -->
<!DOCTYPE svg PUBLIC "-//W3C//DTD SVG 1.1//EN" "http://www.w3.org/Graphics/SVG/1.1/DTD/svg11.dtd">
<svg version="1.1" id="Layer_1" xmlns="http://www.w3.org/2000/svg" xmlns:xlink="http://www.w3.org/1999/xlink" x="0px" y="0px"
	 width="30px" height="30px" viewBox="33.5 -0.5 30 30" enable-background="new 33.5 -0.5 30 30" xml:space="preserve">
<circle fill="#FBFBFB" cx="48.5" cy="14.499" r="14"/>
<circle fill="#D2D1D7" cx="48.5" cy="10.322" r="5.802"/>
<g>
	<path fill="#D2D1D7" d="M48.5,17.153c-4.739,0-8.752,3.057-10.09,8.423c2.665,2.43,6.2,3.924,10.09,3.924s7.422-1.494,10.09-3.923
		C57.252,20.208,53.239,17.153,48.5,17.153z"/>
</g>
<g>
	<path fill="#CECECE" d="M48.5-0.285c8.152,0,14.786,6.632,14.786,14.784S56.652,29.286,48.5,29.286s-14.786-6.634-14.786-14.787
		C33.714,6.348,40.348-0.285,48.5-0.285 M48.5-0.5c-8.284,0-15,6.716-15,14.999c0,8.285,6.716,15.001,15,15.001s15-6.716,15-15.001
		C63.5,6.216,56.784-0.5,48.5-0.5L48.5-0.5z"/>
</g>
</svg>
