<?xml version="1.0" encoding="utf-8"?>
<!-- Generator: Adobe Illustrator 16.0.0, SVG Export Plug-In . SVG Version: 6.00 Build 0)  -->
<!DOCTYPE svg PUBLIC "-//W3C//DTD SVG 1.1//EN" "http://www.w3.org/Graphics/SVG/1.1/DTD/svg11.dtd">
<svg version="1.1" id="Layer_1" xmlns="http://www.w3.org/2000/svg" xmlns:xlink="http://www.w3.org/1999/xlink" x="0px" y="0px"
	 width="160px" height="60px" viewBox="20 10 160 60" enable-background="new 20 10 160 60" xml:space="preserve">
<g>
	<path fill="#FF0558" d="M40.213,54.346l-5.38-21.519h7.733l2.465,13.112H45.2l2.745-13.112h7.509l2.858,13.001h0.167l2.354-13.001
		h7.733l-5.38,21.519h-8.349l-3.025-11.543h-0.225l-3.026,11.543H40.213z"/>
	<path fill="#FF0558" d="M76.915,54.681c-1.373,0-2.584-0.226-3.635-0.68c-1.051-0.453-1.875-1.142-2.473-2.065
		c-0.597-0.926-0.896-2.102-0.896-3.53c0-1.177,0.2-2.183,0.602-3.02c0.401-0.836,0.961-1.52,1.681-2.052
		c0.719-0.531,1.557-0.938,2.514-1.219s1.992-0.462,3.104-0.546c1.204-0.093,2.173-0.208,2.906-0.343
		c0.732-0.136,1.263-0.327,1.59-0.575c0.326-0.247,0.49-0.577,0.49-0.987v-0.056c0-0.561-0.216-0.99-0.645-1.289
		c-0.43-0.298-0.98-0.448-1.653-0.448c-0.738,0-1.338,0.161-1.8,0.484c-0.462,0.321-0.741,0.814-0.833,1.478h-7.117
		c0.094-1.308,0.512-2.515,1.254-3.621c0.742-1.107,1.828-1.995,3.257-2.663c1.428-0.667,3.212-1,5.351-1
		c1.541,0,2.923,0.18,4.147,0.539c1.223,0.36,2.264,0.859,3.124,1.499c0.859,0.639,1.515,1.386,1.968,2.241
		c0.452,0.854,0.679,1.781,0.679,2.781v14.738h-7.229v-3.027h-0.168c-0.43,0.805-0.95,1.452-1.563,1.948
		c-0.611,0.494-1.308,0.854-2.087,1.079C78.706,54.568,77.849,54.681,76.915,54.681z M79.437,49.807c0.587,0,1.142-0.122,1.66-0.364
		c0.518-0.244,0.94-0.595,1.268-1.051c0.327-0.457,0.49-1.014,0.49-1.668v-1.793c-0.205,0.084-0.423,0.165-0.651,0.238
		c-0.229,0.075-0.473,0.146-0.729,0.21c-0.257,0.066-0.527,0.126-0.812,0.184c-0.285,0.056-0.582,0.106-0.889,0.153
		c-0.599,0.093-1.085,0.245-1.464,0.455c-0.379,0.21-0.659,0.467-0.841,0.771c-0.182,0.303-0.272,0.643-0.272,1.016
		c0,0.599,0.21,1.055,0.63,1.373C78.245,49.647,78.783,49.807,79.437,49.807z"/>
	<path fill="#FF0558" d="M107.063,32.827v5.604H92.884v-5.604H107.063z M95.629,27.673h7.734v19.752
		c0,0.299,0.051,0.549,0.153,0.749c0.104,0.2,0.262,0.351,0.477,0.448c0.215,0.099,0.491,0.147,0.826,0.147
		c0.234,0,0.507-0.028,0.819-0.085c0.313-0.056,0.546-0.103,0.694-0.14l1.12,5.437c-0.346,0.103-0.838,0.228-1.477,0.377
		c-0.642,0.15-1.399,0.248-2.277,0.295c-1.774,0.093-3.264-0.092-4.469-0.554c-1.205-0.463-2.111-1.193-2.717-2.192
		c-0.608-1-0.901-2.251-0.884-3.754V27.673z"/>
	<path fill="#652D8D" d="M136.872,36.414h-7.901c-0.057-0.653-0.203-1.247-0.442-1.779c-0.237-0.531-0.564-0.992-0.98-1.379
		c-0.415-0.387-0.917-0.687-1.506-0.896c-0.588-0.21-1.255-0.315-2.003-0.315c-1.307,0-2.412,0.317-3.313,0.953
		c-0.901,0.635-1.583,1.546-2.046,2.732c-0.462,1.186-0.693,2.61-0.693,4.272c0,1.756,0.235,3.225,0.708,4.405
		c0.472,1.182,1.155,2.069,2.052,2.662c0.897,0.594,1.976,0.89,3.235,0.89c0.72,0,1.364-0.092,1.934-0.272
		c0.57-0.184,1.064-0.447,1.484-0.792c0.421-0.346,0.764-0.763,1.03-1.255c0.267-0.489,0.446-1.043,0.54-1.659l7.901,0.056
		c-0.094,1.215-0.436,2.449-1.023,3.706c-0.589,1.255-1.423,2.414-2.501,3.474c-1.078,1.061-2.411,1.912-3.999,2.558
		c-1.589,0.643-3.433,0.965-5.533,0.965c-2.634,0-4.995-0.564-7.081-1.694c-2.089-1.129-3.736-2.792-4.945-4.987
		c-1.21-2.194-1.814-4.879-1.814-8.055c0-3.193,0.617-5.886,1.85-8.075c1.232-2.19,2.896-3.848,4.986-4.974
		c2.093-1.125,4.427-1.688,7.005-1.688c1.812,0,3.478,0.247,5.001,0.742c1.521,0.496,2.857,1.217,4.006,2.165
		c1.149,0.948,2.074,2.113,2.774,3.495C136.297,33.047,136.722,34.63,136.872,36.414z"/>
	<path fill="#652D8D" d="M157.379,25.656h7.788v18.378c0,2.186-0.521,4.074-1.562,5.667s-2.49,2.82-4.349,3.684
		c-1.859,0.864-4.017,1.296-6.473,1.296c-2.474,0-4.641-0.432-6.499-1.296c-1.858-0.863-3.304-2.091-4.336-3.684
		s-1.548-3.481-1.548-5.667V25.656h7.788v17.706c0,0.888,0.196,1.681,0.588,2.375c0.393,0.695,0.937,1.24,1.632,1.633
		c0.696,0.391,1.487,0.588,2.375,0.588c0.896,0,1.689-0.197,2.382-0.588c0.69-0.393,1.232-0.938,1.624-1.633
		c0.394-0.694,0.589-1.487,0.589-2.375V25.656z"/>
</g>
</svg>
